# xmcd
# 
# Track frame offsets:
#     150
#     15482
#     41082
#     62032
#     86980
#     109605
#     135802
#     159987
#     190335
#     209585
#     228065
#     252285
# 
# Disc length: 3624
# 
# Revision: 1
# Processed by: cddbd v1.5.2PL0 Copyright (c) Steve Scherf et al.
# Submitted via: BonkEnc v1.0.8
# 
DISCID=970e260c
DTITLE=ガゼット - 大日本異端芸者的脳味噌逆回転音源集
DYEAR=2006
DGENRE=Rock
TTITLE0=Beautiful 5[shit]ers
TTITLE1=32口径の拳銃
TTITLE2=幸せな日々
TTITLE3=「春ニ散リケリ、身ハ枯レルデゴザイマス。」
TTITLE4=鬼の面
TTITLE5=Ray
TTITLE6=ワイフ
TTITLE7=絆
TTITLE8=LINDA〜candydive pinky heaven〜
TTITLE9=ブラックスパンコールギャング
TTITLE10=別れ道
TTITLE11=☆BEST FRIENDS☆
EXTD=YEAR: 2006
EXTT0=
EXTT1=
EXTT2=
EXTT3=
EXTT4=
EXTT5=
EXTT6=
EXTT7=
EXTT8=
EXTT9=
EXTT10=
EXTT11=
PLAYORDER=
